<svg width="20" height="23" viewBox="0 0 20 23" fill="none" xmlns="http://www.w3.org/2000/svg">
<path fill-rule="evenodd" clip-rule="evenodd" d="M8.5021 0.402877C8.9577 0.140377 9.4742 0.00219727 10 0.00219727C10.5258 0.00219727 11.0424 0.140387 11.4979 0.402917L11.5 0.404117L18.5 4.40411C18.87 4.61775 19.1892 4.90737 19.437 5.25264C19.4973 5.31298 19.5508 5.38207 19.5955 5.4594C19.6341 5.52599 19.664 5.59517 19.6858 5.66567C19.8916 6.07921 19.9995 6.53552 20 6.99912V15.0012C19.9995 15.5272 19.8606 16.0439 19.5973 16.4994C19.334 16.9549 18.9556 17.3331 18.5 17.5962L18.4961 17.5984L11.5 21.5962L11.4982 21.5972C11.181 21.78 10.8341 21.9026 10.4752 21.9602C10.3338 22.0367 10.172 22.0801 10 22.0801C9.828 22.0801 9.6662 22.0367 9.5248 21.9602C9.1659 21.9026 8.8191 21.7801 8.5019 21.5972L8.5 21.5962L1.50386 17.5984L1.5 17.5962C1.04439 17.3331 0.66597 16.9549 0.40269 16.4994C0.13941 16.0439 0.00054 15.5272 0 15.0012V6.99912C0.00048 6.53575 0.10827 6.07967 0.31385 5.6663C0.33566 5.59558 0.3657 5.52618 0.40433 5.4594C0.44917 5.38189 0.50282 5.31266 0.56328 5.25223C0.8111 4.90714 1.13012 4.61767 1.5 4.40412L1.50386 4.40189L8.5021 0.402877ZM11 19.5784L17.5 15.8641L17.5016 15.8632C17.6527 15.7755 17.7783 15.6498 17.8658 15.4985C17.9535 15.3467 17.9998 15.1745 18 14.9991V7.53763L11 11.5869V19.5784ZM9 11.5869V19.5784L2.5 15.8641L2.49842 15.8632C2.34726 15.7755 2.22169 15.6498 2.13423 15.4985C2.04654 15.3468 2.00025 15.1747 2 14.9995V7.5377L9 11.5869ZM10.5 2.13618L16.961 5.82815L9.9999 9.85482L3.03897 5.82819L9.4961 2.1384L9.5 2.13617C9.652 2.0484 9.8245 2.0022 10 2.0022C10.1755 2.0022 10.348 2.04841 10.5 2.13618Z" fill="white"/>
</svg>
